<svg xmlns="http://www.w3.org/2000/svg" viewBox="0 0 64 64" width="64" height="64">
  <defs>
    <radialGradient id="body" cx="50%" cy="38%" r="50%">
      <stop offset="0%" stop-color="#3a4a5a"/>
      <stop offset="60%" stop-color="#1a2a38"/>
      <stop offset="100%" stop-color="#080e14"/>
    </radialGradient>
    <radialGradient id="face" cx="45%" cy="35%" r="55%">
      <stop offset="0%" stop-color="#80c8ff"/>
      <stop offset="40%" stop-color="#2878c0"/>
      <stop offset="100%" stop-color="#083058"/>
    </radialGradient>
    <radialGradient id="gloss" cx="50%" cy="20%" r="55%">
      <stop offset="0%" stop-color="#ffffff" stop-opacity="0.55"/>
      <stop offset="100%" stop-color="#ffffff" stop-opacity="0"/>
    </radialGradient>
    <filter id="shadow">
      <feDropShadow dx="0" dy="2" stdDeviation="2" flood-color="#000" flood-opacity="0.6"/>
    </filter>
  </defs>
  <circle cx="32" cy="32" r="30" fill="#000" opacity="0.4" filter="url(#shadow)"/>
  <circle cx="32" cy="32" r="30" fill="url(#body)" stroke="#020810" stroke-width="1"/>
  <circle cx="32" cy="32" r="24" fill="url(#face)"/>
  <!-- Gear/Settings icon -->
  <circle cx="32" cy="32" r="5" fill="none" stroke="#fff" stroke-width="2.5"/>
  <path d="M32 18 L33.5 22 L36 20.5 L37 23.5 L40 23 L39.5 26 L43 27.5 L41 30 L44 32 L41 34 L43 36.5 L39.5 38 L40 41 L37 40.5 L36 43.5 L33.5 42 L32 46 L30.5 42 L28 43.5 L27 40.5 L24 41 L24.5 38 L21 36.5 L23 34 L20 32 L23 30 L21 27.5 L24.5 26 L24 23 L27 23.5 L28 20.5 L30.5 22 Z" fill="none" stroke="#fff" stroke-width="2" stroke-linejoin="round"/>
  <ellipse cx="32" cy="22" rx="16" ry="10" fill="url(#gloss)"/>
</svg>
