<svg xmlns="http://www.w3.org/2000/svg" viewBox="0 0 64 64" width="64" height="64">
  <defs>
    <!-- Drop shadow: enlarged bbox to prevent clipping in Qt SVG renderer -->
    <filter id="ds" x="-100%" y="-100%" width="300%" height="300%">
      <feGaussianBlur in="SourceAlpha" stdDeviation="1.5"/>
      <feOffset dx="0" dy="1.6"/>
      <feComponentTransfer><feFuncA type="linear" slope="0.55"/></feComponentTransfer>
      <feMerge>
        <feMergeNode/>
        <feMergeNode in="SourceGraphic"/>
      </feMerge>
    </filter>

    <!-- Soft blur for gloss (enlarged bbox) -->
    <filter id="gb" x="-50%" y="-50%" width="200%" height="200%">
      <feGaussianBlur stdDeviation="1.5"/>
    </filter>

    <!-- Sharper blur for specular spot (enlarged bbox) -->
    <filter id="sb" x="-50%" y="-50%" width="200%" height="200%">
      <feGaussianBlur stdDeviation="0.6"/>
    </filter>

    <!-- Symbol drop shadow (enlarged bbox) -->
    <filter id="ss" x="-50%" y="-50%" width="200%" height="200%">
      <feGaussianBlur in="SourceAlpha" stdDeviation="0.5"/>
      <feOffset dx="0" dy="0.7"/>
      <feComponentTransfer><feFuncA type="linear" slope="0.5"/></feComponentTransfer>
      <feMerge>
        <feMergeNode/>
        <feMergeNode in="SourceGraphic"/>
      </feMerge>
    </filter>

    <!-- Silver metallic rim: linear gradient bright top -> dark bottom -->
    <linearGradient id="cr" x1="0" y1="0" x2="0" y2="1">
      <stop offset="0%"  stop-color="#ffffff"/>
      <stop offset="20%" stop-color="#f4f4f4"/>
      <stop offset="45%" stop-color="#bcbcbc"/>
      <stop offset="55%" stop-color="#6e6e6e"/>
      <stop offset="80%" stop-color="#4a4a4a"/>
      <stop offset="100%" stop-color="#a8a8a8"/>
    </linearGradient>

    <!-- Bright top arc reflection on rim -->
    <linearGradient id="ct" x1="0" y1="0" x2="0" y2="1">
      <stop offset="0%"  stop-color="#ffffff" stop-opacity="1"/>
      <stop offset="100%" stop-color="#ffffff" stop-opacity="0"/>
    </linearGradient>

    <!-- Dark bottom arc reflection on rim -->
    <linearGradient id="cb" x1="0" y1="1" x2="0" y2="0">
      <stop offset="0%"  stop-color="#1a1a1a" stop-opacity="0.95"/>
      <stop offset="100%" stop-color="#1a1a1a" stop-opacity="0"/>
    </linearGradient>

    <!-- Colored disc: vertical gradient (light top -> main -> dark bottom) -->
    <linearGradient id="cd" x1="0" y1="0" x2="0" y2="1">
      <stop offset="0%"  stop-color="#5be07a"/>
      <stop offset="50%" stop-color="#0fa84a"/>
      <stop offset="100%" stop-color="#063a18"/>
    </linearGradient>

    <!-- Radial overlay for sphere-like 3D curvature -->
    <radialGradient id="cs" cx="0.35" cy="0.3" r="0.85">
      <stop offset="0%"  stop-color="#ffffff" stop-opacity="0.3"/>
      <stop offset="55%" stop-color="#ffffff" stop-opacity="0"/>
      <stop offset="100%" stop-color="#000000" stop-opacity="0.4"/>
    </radialGradient>

    <!-- Clip path so gloss stays inside the colored disc -->
    <clipPath id="dc">
      <circle cx="32" cy="32" r="26"/>
    </clipPath>

    <!-- Clip path for chrome rim ring (~3.5px wide band) -->
    <clipPath id="rc">
      <path d="M32,3 A29,29 0 1,1 32,61 A29,29 0 1,1 32,3 Z M32,6.5 A25.5,25.5 0 1,0 32,57.5 A25.5,25.5 0 1,0 32,6.5 Z" fill-rule="evenodd"/>
    </clipPath>
  </defs>

  <!-- 1. Drop shadow under button (circular, not elliptical, for cleaner look) -->
  <circle cx="32" cy="33.5" r="28" fill="#000000" opacity="0.42" filter="url(#ds)"/>

  <!-- 2. Silver metallic rim (~3.5px wide band) -->
  <circle cx="32" cy="32" r="29" fill="url(#cr)"/>
  <g clip-path="url(#rc)">
    <ellipse cx="32" cy="3.5" rx="28" ry="10" fill="url(#ct)" opacity="1"/>
    <ellipse cx="32" cy="60.5" rx="28" ry="8" fill="url(#cb)" opacity="0.98"/>
    <ellipse cx="32" cy="4.5" rx="24" ry="1.6" fill="#ffffff" opacity="1"/>
    <ellipse cx="32" cy="59.5" rx="24" ry="1.3" fill="#000000" opacity="0.7"/>
    <ellipse cx="32" cy="32" rx="29" ry="0.8" fill="#ffffff" opacity="0.3"/>
  </g>

  <!-- 3. Sharp dark ring between rim and disc -->
  <circle cx="32" cy="32" r="26.2" fill="none" stroke="#0a0a0a" stroke-width="0.7" opacity="0.9"/>
  <circle cx="32" cy="32" r="25.8" fill="none" stroke="#ffffff" stroke-width="0.5" opacity="0.5"/>

  <!-- 4. Colored disc -->
  <circle cx="32" cy="32" r="26" fill="url(#cd)"/>
  <circle cx="32" cy="32" r="26" fill="url(#cs)"/>

  <!-- 5. Glossy highlights (clipped to disc) -->
  <g clip-path="url(#dc)">
    <ellipse cx="24" cy="15" rx="22" ry="12" fill="#ffffff" opacity="0.55" filter="url(#gb)"/>
    <ellipse cx="21" cy="13" rx="11" ry="6" fill="#ffffff" opacity="0.85" filter="url(#sb)"/>
    <ellipse cx="42" cy="46" rx="8" ry="5" fill="#ffffff" opacity="0.4" filter="url(#gb)"/>
    <ellipse cx="44" cy="45" rx="3" ry="1.5" fill="#ffffff" opacity="0.65" filter="url(#sb)"/>
    <ellipse cx="32" cy="51" rx="25" ry="10" fill="#000000" opacity="0.38" filter="url(#gb)"/>
  </g>

  <!-- 6. Inner subtle ring -->
  <circle cx="32" cy="32" r="26" fill="none" stroke="#000000" stroke-width="0.4" opacity="0.4"/>

  <!-- 7. Symbol with shadow -->
  <g filter="url(#ss)">
    
<g>
  <!--
    N64 controller as a SINGLE continuous path with deep V-cuts between handles.
    This is the KEY N64 feature: 3 handles separated by concave V-shaped gaps.
    Drawn BIG to fill the button. Coordinates for 64x64 viewBox, disc r=26 at (32,32).

    Silhouette path:
    - Wide rounded top body
    - Right handle: tapers down-right, rounded bottom
    - Deep V-cut up into body (between right and central handle)
    - Central handle: straight down, longest, rounded bottom
    - Deep V-cut up into body (between central and left handle)
    - Left handle: tapers down-left, rounded bottom
  -->
  <path d="
    M 8,26
    Q 8,13 19,12
    L 45,12
    Q 56,13 56,26
    L 56,30
    Q 55,44 51,49
    Q 48,52 44,51
    Q 40,50 38,44
    Q 36,32 36,27
    L 38,27
    L 38,52
    Q 38,56 32,56
    Q 26,56 26,52
    L 26,27
    L 28,27
    Q 28,32 26,44
    Q 24,50 20,51
    Q 16,52 13,49
    Q 9,44 8,30
    Z
  " fill="#e8e8e8" stroke="#5a5a5a" stroke-width="0.6"/>

  <!-- Subtle top shading for 3D depth -->
  <path d="M 8,26 Q 8,13 19,12 L 45,12 Q 56,13 56,26 L 56,18 L 8,18 Z"
        fill="#000000" opacity="0.10"/>

  <!-- D-Pad (LEFT handle, upper area) - GRAY per N64 -->
  <g transform="translate(17, 33)">
    <circle r="3.5" fill="#4a4a4a" stroke="#2a2a2a" stroke-width="0.3"/>
    <rect x="-3" y="-0.8" width="6" height="1.6" rx="0.2" fill="#6a6a6a"/>
    <rect x="-0.8" y="-3" width="1.6" height="6" rx="0.2" fill="#6a6a6a"/>
    <circle r="0.5" fill="#1a1a1a"/>
  </g>

  <!-- Analog Stick (CENTRAL handle, upper area) - GRAY with white dot -->
  <g transform="translate(32, 33)">
    <circle r="3.6" fill="#2a2a2a" stroke="#1a1a1a" stroke-width="0.3"/>
    <circle r="2.8" fill="#5a5a5a"/>
    <circle r="1.9" fill="#2a2a2a"/>
    <circle r="1" fill="#ffffff" opacity="0.9"/>
  </g>

  <!-- C-Buttons: 4 yellow buttons in 2x2 grid (RIGHT handle, upper area) -->
  <g fill="#f5c518" stroke="#a88510" stroke-width="0.2">
    <circle cx="43.5" cy="30" r="1.5"/>
    <circle cx="47" cy="30" r="1.5"/>
    <circle cx="43.5" cy="33.5" r="1.5"/>
    <circle cx="47" cy="33.5" r="1.5"/>
  </g>
  <g fill="#ffe680" opacity="0.85">
    <circle cx="43.2" cy="29.7" r="0.55"/>
    <circle cx="46.7" cy="29.7" r="0.55"/>
    <circle cx="43.2" cy="33.2" r="0.55"/>
    <circle cx="46.7" cy="33.2" r="0.55"/>
  </g>

  <!-- B button (green, LARGER) - on RIGHT handle, BELOW C-buttons, left -->
  <circle cx="43" cy="39" r="2" fill="#0fa84a" stroke="#063a18" stroke-width="0.2"/>
  <circle cx="42.6" cy="38.6" r="0.8" fill="#5be07a" opacity="0.85"/>

  <!-- A button (blue, smaller) - on RIGHT handle, BELOW C-buttons, right -->
  <circle cx="47.5" cy="40" r="1.7" fill="#1e6cd6" stroke="#06245a" stroke-width="0.2"/>
  <circle cx="47.2" cy="39.7" r="0.65" fill="#5aa0ff" opacity="0.85"/>

  <!-- Start button (red) - on CENTRAL handle, between analog stick and bottom -->
  <ellipse cx="32" cy="43" rx="2.8" ry="1.5" fill="#d62e2e" stroke="#5a0e0e" stroke-width="0.2"/>
  <ellipse cx="32" cy="42.6" rx="2.1" ry="0.55" fill="#ff6b6b" opacity="0.7"/>
</g>
  </g>
</svg>