<svg xmlns="http://www.w3.org/2000/svg" viewBox="0 0 64 64" width="64" height="64">
  <defs>
    <radialGradient id="body" cx="50%" cy="38%" r="50%">
      <stop offset="0%" stop-color="#3a3a3a"/>
      <stop offset="60%" stop-color="#1a1a1a"/>
      <stop offset="100%" stop-color="#080808"/>
    </radialGradient>
    <radialGradient id="face" cx="45%" cy="35%" r="55%">
      <stop offset="0%" stop-color="#a0a0c0"/>
      <stop offset="40%" stop-color="#6060a0"/>
      <stop offset="100%" stop-color="#202040"/>
    </radialGradient>
    <radialGradient id="gloss" cx="50%" cy="20%" r="55%">
      <stop offset="0%" stop-color="#ffffff" stop-opacity="0.55"/>
      <stop offset="100%" stop-color="#ffffff" stop-opacity="0"/>
    </radialGradient>
    <filter id="shadow">
      <feDropShadow dx="0" dy="2" stdDeviation="2" flood-color="#000" flood-opacity="0.6"/>
    </filter>
  </defs>
  <circle cx="32" cy="32" r="30" fill="#000" opacity="0.4" filter="url(#shadow)"/>
  <circle cx="32" cy="32" r="30" fill="url(#body)" stroke="#000000" stroke-width="1"/>
  <circle cx="32" cy="32" r="24" fill="url(#face)"/>
  
    <path d="M32 16 A16 16 0 0 0 20.3 39.5 C21 40.8 22.3 41.5 23.5 41.5 L23.5 38.5 C22 38.2 21 37 21 35.5 C21 34 21.8 32.8 23 32 C21 31.5 20 30 20 28 C20 26.5 20.5 25.2 21.5 24.2 C21.2 23.3 21 22.2 21.2 21 C22.5 21 24 21.7 25.5 22.8 C27 22.3 28.5 22 30 22 C31.5 22 33 22.3 34.5 22.8 C36 21.7 37.5 21 38.8 21 C39 22.2 38.8 23.3 38.5 24.2 C39.5 25.2 40 26.5 40 28 C40 30 39 31.5 37 32 C38.2 32.8 39 34 39 35.5 C39 37 38 38.2 36.5 38.5 L36.5 41.5 C37.7 41.5 39 40.8 39.7 39.5 A16 16 0 0 0 32 16 Z" fill="#fff"/>
    <path d="M23.5 38.5 L23.5 44 C24.8 44.5 27 45 32 45 C37 45 39.2 44.5 40.5 44 L40.5 38.5" fill="none" stroke="#fff" stroke-width="2" stroke-linecap="round"/>
  <ellipse cx="32" cy="22" rx="16" ry="10" fill="url(#gloss)"/>
</svg>